<?xml version="1.0" encoding="UTF-8" ?>
<!DOCTYPE svg PUBLIC "-//W3C//DTD SVG 1.1//EN" "http://www.w3.org/Graphics/SVG/1.1/DTD/svg11.dtd">
<svg width="686pt" height="271pt" viewBox="0 0 686 271" version="1.1" xmlns="http://www.w3.org/2000/svg">
<g id="#000000ff">
<path fill="#000000" opacity="1.00" d=" M 383.32 62.25 C 388.27 59.70 395.52 63.13 395.37 69.07 C 395.66 85.08 393.32 101.00 392.89 117.00 C 392.59 127.71 392.66 138.45 393.49 149.14 C 393.79 153.09 395.45 157.92 392.17 161.09 C 388.66 165.27 381.82 164.42 378.92 159.97 C 371.23 164.03 362.17 164.50 353.73 163.17 C 343.31 161.31 334.17 153.76 330.38 143.89 C 327.32 135.29 327.85 125.75 330.45 117.10 C 333.58 107.79 340.63 99.46 350.11 96.24 C 358.84 93.28 368.94 93.30 377.14 97.85 C 377.86 88.24 377.87 78.57 379.20 69.02 C 379.65 66.39 380.64 63.37 383.32 62.25 M 353.21 112.12 C 345.71 115.94 343.76 125.33 344.43 133.04 C 344.99 142.06 354.30 148.95 363.10 147.70 C 368.33 147.79 372.29 144.01 376.00 140.84 C 375.91 133.87 376.03 126.91 375.98 119.94 C 376.22 117.52 374.58 115.55 372.98 113.95 C 367.78 108.94 359.40 109.28 353.21 112.12 Z" />
<path fill="#000000" opacity="1.00" d=" M 97.92 64.83 C 106.90 63.78 115.93 62.04 125.01 62.97 C 131.88 63.71 138.68 65.31 145.13 67.77 C 147.94 69.07 151.59 70.50 152.20 73.94 C 152.25 78.03 149.22 82.21 145.02 82.74 C 142.19 82.98 139.46 81.96 136.73 81.37 C 124.98 78.67 112.75 79.63 100.99 81.76 C 101.05 88.55 101.05 95.34 101.00 102.14 C 113.33 99.29 126.23 99.43 138.67 101.47 C 144.76 102.29 146.95 110.77 143.01 115.03 C 141.18 116.87 138.67 117.95 136.08 117.99 C 128.67 118.24 121.30 116.51 113.89 117.28 C 109.51 117.79 105.25 118.93 101.00 120.02 C 100.97 133.03 101.04 146.04 100.87 159.04 C 101.11 165.97 91.48 170.21 86.37 165.70 C 83.41 163.43 83.39 159.41 83.41 156.03 C 83.54 130.04 83.27 104.04 83.57 78.05 C 83.69 73.91 83.12 68.74 86.97 66.01 C 90.11 63.36 94.26 64.70 97.92 64.83 Z" />
<path fill="#000000" opacity="1.00" d=" M 171.41 68.51 C 176.77 65.59 184.78 68.58 185.78 74.90 C 187.16 80.67 181.67 86.18 176.00 85.83 C 171.15 85.95 166.40 81.91 166.29 76.95 C 166.08 73.43 168.29 70.06 171.41 68.51 Z" />
<path fill="#000000" opacity="1.00" d=" M 213.54 103.15 C 221.53 97.78 231.15 94.29 240.88 95.40 C 245.41 96.07 248.62 100.06 249.56 104.35 C 250.74 109.64 251.02 115.34 249.35 120.56 C 247.45 125.92 239.70 126.95 235.73 123.38 C 233.06 119.91 233.94 115.17 233.42 111.09 C 225.02 112.70 216.36 117.65 213.50 126.15 C 213.03 136.73 213.83 147.37 213.26 157.95 C 212.92 164.32 204.19 167.36 199.61 163.30 C 196.85 161.06 196.81 157.22 196.79 153.97 C 196.92 138.30 196.64 122.64 196.98 106.98 C 197.14 104.46 196.95 101.64 198.57 99.52 C 200.89 96.00 206.03 95.59 209.57 97.36 C 211.84 98.44 212.56 101.05 213.54 103.15 Z" />
<path fill="#000000" opacity="1.00" d=" M 170.29 96.32 C 174.96 94.19 181.60 96.62 182.43 102.02 C 183.14 109.68 181.94 117.36 181.65 125.01 C 181.18 134.35 181.89 143.69 181.92 153.02 C 181.97 155.68 181.42 158.49 179.49 160.45 C 175.93 163.78 169.41 163.63 166.44 159.58 C 164.63 157.50 164.73 154.58 164.63 151.99 C 164.55 141.34 163.75 130.66 164.68 120.03 C 165.18 114.38 165.20 108.71 165.63 103.06 C 165.73 100.14 167.71 97.57 170.29 96.32 Z" />
<path fill="#000000" opacity="1.00" d=" M 268.56 103.60 C 273.73 98.59 280.89 95.99 288.03 95.77 C 295.67 95.55 303.77 96.44 310.31 100.73 C 315.71 104.11 318.53 111.34 316.48 117.43 C 314.63 122.55 309.87 125.80 305.27 128.24 C 295.17 133.31 284.71 137.62 274.45 142.35 C 281.02 148.91 291.25 149.78 299.87 147.62 C 303.99 146.62 307.36 143.84 311.39 142.61 C 314.06 141.89 317.52 142.16 319.32 144.52 C 321.61 148.48 319.86 153.78 316.30 156.37 C 310.66 160.68 303.59 162.62 296.66 163.55 C 285.57 164.57 273.45 162.69 264.90 155.03 C 258.04 149.21 255.76 139.65 256.65 131.00 C 257.10 120.82 261.26 110.77 268.56 103.60 M 285.56 111.39 C 278.93 113.29 275.33 119.93 273.25 126.02 C 282.48 122.20 291.96 118.73 300.39 113.29 C 295.99 110.62 290.49 110.34 285.56 111.39 Z" />
<path fill="#000000" opacity="1.00" d=" M 430.53 96.77 C 438.03 95.58 446.57 96.20 452.55 101.37 C 458.20 105.96 461.74 112.72 463.05 119.82 C 465.23 131.48 463.14 144.31 455.70 153.78 C 447.22 165.36 429.45 168.05 417.58 160.26 C 410.22 155.68 405.28 147.63 404.06 139.10 C 402.54 129.41 404.14 118.99 409.82 110.85 C 414.38 103.53 421.98 98.17 430.53 96.77 M 433.19 113.17 C 426.32 114.74 422.47 121.75 421.25 128.19 C 420.29 133.88 420.51 140.73 424.97 144.98 C 429.93 150.15 439.06 148.73 443.39 143.45 C 446.30 140.03 447.25 135.43 447.22 131.04 C 447.23 125.92 446.95 120.36 443.84 116.05 C 441.39 112.85 436.89 112.22 433.19 113.17 Z" />
<path fill="#000000" opacity="1.00" d=" M 551.59 103.60 C 556.76 98.58 563.92 95.99 571.06 95.77 C 578.68 95.55 586.76 96.43 593.28 100.70 C 598.74 104.08 601.57 111.37 599.48 117.49 C 597.61 122.59 592.86 125.83 588.26 128.26 C 578.17 133.32 567.72 137.62 557.48 142.35 C 564.06 148.92 574.31 149.79 582.93 147.61 C 587.03 146.60 590.39 143.85 594.39 142.61 C 597.10 141.88 600.65 142.15 602.40 144.63 C 604.58 148.57 602.87 153.75 599.36 156.34 C 593.90 160.55 587.05 162.48 580.32 163.47 C 568.83 164.70 556.14 162.74 547.42 154.57 C 540.92 148.72 538.82 139.43 539.67 131.00 C 540.12 120.82 544.28 110.76 551.59 103.60 M 567.84 111.62 C 561.64 113.84 558.28 120.14 556.29 126.01 C 565.55 122.11 575.22 118.78 583.57 113.05 C 578.69 110.86 573.02 110.08 567.84 111.62 Z" />
<path fill="#000000" opacity="1.00" d=" M 489.87 100.90 C 496.41 97.69 503.83 96.86 511.03 97.09 C 515.57 97.27 520.32 98.15 523.96 101.06 C 526.53 103.35 530.66 103.40 532.51 106.55 C 534.47 109.67 533.98 113.60 533.68 117.09 C 532.51 125.36 531.04 133.59 530.38 141.93 C 529.28 153.93 529.97 166.35 525.84 177.87 C 523.55 184.53 518.47 190.20 511.97 192.95 C 503.48 196.57 494.02 196.56 484.98 195.83 C 480.53 195.38 475.86 194.60 472.15 191.93 C 468.71 189.38 468.72 183.68 471.95 180.95 C 475.17 177.93 479.94 179.16 483.85 179.72 C 491.27 181.13 500.03 182.52 506.43 177.48 C 511.87 172.71 512.96 164.95 513.34 158.12 C 502.59 167.99 483.82 165.23 475.41 153.65 C 469.29 145.92 468.77 135.28 470.52 125.95 C 472.49 115.16 479.91 105.51 489.87 100.90 M 490.75 119.90 C 487.70 124.29 486.82 129.77 486.77 135.00 C 486.77 138.87 487.37 143.04 489.93 146.11 C 493.21 150.02 499.48 150.47 503.61 147.64 C 508.99 144.16 512.85 138.31 513.94 131.99 C 515.09 125.91 515.86 119.78 516.60 113.64 C 508.06 108.98 496.11 111.69 490.75 119.90 Z" />
</g>
</svg>
